<svg width="200" height="50" viewBox="0 0 200 50" fill="none" xmlns="http://www.w3.org/2000/svg">
<path d="M160.849 24.5049C160.609 23.4268 159.276 19.6715 158.302 19.3955C157.823 19.5465 158.042 20.2028 157.932 20.5882C157.859 22.0518 157.182 23.6403 157.469 25.0622C157.849 25.2601 161.109 25.2601 160.849 24.5049ZM158.641 21.0205C158.865 21.4372 159.083 21.8538 159.281 22.2809C158.286 21.9268 158.516 21.984 158.641 21.0205ZM158.146 24.4007C158.161 24.2393 158.182 24.0778 158.203 23.9111L159.266 24.3538C158.896 24.3695 158.521 24.3851 158.146 24.4007ZM158.26 23.458C158.312 23.1038 158.37 22.7497 158.427 22.4007C159.656 22.8174 159.677 22.9632 159.995 24.182L158.26 23.458Z" fill="white"/>
<mask id="mask0_113_9241" style="mask-type:luminance" maskUnits="userSpaceOnUse" x="136" y="10" width="51" height="26">
<path d="M136.25 10H186.578V35.3333H136.25V10Z" fill="white"/>
</mask>
<g mask="url(#mask0_113_9241)">
<path d="M186.506 24.1507C186.501 21.0153 185.11 17.859 182.553 15.9684C181.261 14.9163 178.641 14.0518 177.126 13.3747C175.23 12.4997 173.027 12.4424 171.011 12.6507C170.48 12.859 169.136 12.2653 168.954 13.0413C169.042 15.6559 168.99 18.3174 168.902 20.9424C167.792 18.6143 166.896 16.0622 165.542 13.8955L162.245 12.5205C162.183 12.4945 162.12 12.4893 162.058 12.4893C152.907 13.984 154.751 10.3799 152.912 18.9893C151.173 15.7393 148.214 14.7288 145.011 13.4372C142.433 12.2184 139.506 12.5465 136.808 12.7549C136.615 17.4632 136.683 22.3434 136.407 27.0934C136.318 29.1195 136.287 31.1715 136.292 33.2132C136.251 33.8643 136.282 34.4893 136.568 34.9945C137.162 35.2601 140.037 36.5101 140.636 36.6455C144.261 37.4893 148.339 36.1195 150.777 33.3122C150.49 34.1715 151.136 34.7184 151.912 35.0466C153.792 35.9059 156.818 37.1663 158.839 36.9163C159.251 36.9163 159.693 36.9476 160.011 36.6663C160.787 35.7601 160.464 32.7705 161.027 31.4632C161.162 31.109 161.381 30.7393 161.777 30.6507C162.459 32.0622 163.11 33.682 163.891 34.9997C164.162 35.5101 167.324 36.6507 167.844 36.8122C168.662 36.6247 169.282 35.9111 169.995 35.5049C178.365 39.9788 186.579 32.8538 186.506 24.1507ZM185.657 22.9007C185.709 23.2861 185.74 23.6768 185.745 24.0674L183.209 23.0101C183.209 22.6247 183.199 22.2393 183.162 21.859L185.657 22.9007ZM185.282 21.1403C185.407 21.5518 185.506 21.9684 185.584 22.3955L183.105 21.3643C183.053 20.9476 182.975 20.5413 182.87 20.1351L185.282 21.1403ZM184.412 19.1715C184.678 19.6247 184.907 20.0934 185.089 20.583C185.084 20.5674 182.704 19.6143 182.719 19.583C182.584 19.1247 182.412 18.682 182.209 18.2497L184.412 19.1715ZM180.407 15.5674C181.865 16.234 183.058 17.2184 183.99 18.5205C183.975 18.4997 181.886 17.6715 181.896 17.6299C181.652 17.1872 181.37 16.7653 181.058 16.3695C180.829 16.0726 180.584 15.7913 180.318 15.5257C180.35 15.5361 180.376 15.5518 180.407 15.5674ZM168.73 25.458C167.631 25.1611 167.777 24.6663 167.36 23.7601C168.563 24.3747 168.912 23.8799 168.73 25.458ZM168.678 27.0413C168.443 26.6403 168.324 26.1195 168.126 25.682C169.042 25.9215 168.62 26.2861 168.673 27.0413H168.678ZM168.834 22.7653C168.824 23.1403 168.808 23.5101 168.792 23.8799C167.266 23.234 167.131 23.484 166.568 21.8226L168.834 22.7653ZM168.021 20.8226C168.225 21.2809 168.423 21.7393 168.62 22.1976L166.324 21.2445C166.131 20.7861 165.933 20.3278 165.735 19.8695L168.021 20.8226ZM167.141 18.8486C167.35 19.3122 167.558 19.7757 167.761 20.2393L165.48 19.2861C165.277 18.8226 165.074 18.3643 164.865 17.9007L167.141 18.8486ZM166.225 16.859C166.443 17.333 166.657 17.7965 166.87 18.2601L164.6 17.3122C164.391 16.8486 164.178 16.3851 163.964 15.9163L166.225 16.859ZM165.115 14.5361C165.396 15.1143 165.673 15.6924 165.943 16.2653C163.87 15.3486 163.777 15.8382 162.87 13.5986L165.115 14.5361ZM152.141 23.5101C150.662 22.8174 151.021 23.458 150.891 21.859C152.136 22.5205 152.49 21.9476 152.141 23.5101ZM151.917 25.0257C150.652 24.4632 150.829 24.8903 150.933 23.484C152.063 23.9893 152.199 23.6715 151.917 25.0257ZM151.824 25.6924C151.782 25.9736 151.745 26.2601 151.704 26.5413C150.35 25.8851 150.511 26.4997 150.771 25.0205C150.902 25.1403 152.068 25.3747 151.824 25.6924ZM151.61 27.2132C151.574 27.4945 151.532 27.7757 151.495 28.057L150.131 27.4893C150.204 27.2861 150.282 27.0622 150.344 26.859C150.381 26.734 150.412 26.6143 150.449 26.4945C150.568 26.609 151.87 26.8903 151.61 27.208V27.2132ZM148.829 30.1559C149.021 29.859 149.193 29.557 149.355 29.2445L151.23 30.0309C151.183 30.3851 151.136 30.7393 151.084 31.0986L148.829 30.1559ZM151.407 28.7288C151.365 29.0153 151.329 29.2965 151.292 29.5778L149.553 28.8538C149.584 28.7913 149.61 28.7393 149.641 28.6768C149.756 28.4215 149.876 28.1559 149.975 27.9007C150.079 28.0205 151.693 28.4111 151.407 28.7288ZM150.839 21.3643C150.787 20.9476 150.709 20.5413 150.605 20.1351L152.558 20.9476C152.495 21.3018 152.438 21.6507 152.381 22.0049L150.839 21.3643ZM152.146 19.1715C152.334 19.5934 152.761 20.0309 152.636 20.5049L150.454 19.5986C150.318 19.1351 150.152 18.6872 149.943 18.2497L152.146 19.1715ZM148.141 15.5674C149.6 16.234 150.792 17.2184 151.725 18.5205C151.709 18.4997 149.615 17.6715 149.626 17.6299C149.381 17.1872 149.105 16.7653 148.792 16.3695C148.563 16.0726 148.313 15.7913 148.053 15.5257C148.079 15.5361 148.11 15.5518 148.136 15.5674H148.141ZM137.6 34.557C136.761 34.4528 137.105 33.432 137.063 32.8174C137.011 29.8434 137.188 26.859 137.282 23.9059C137.417 20.4684 137.558 16.9215 137.459 13.432C138.386 13.458 139.157 13.3747 140.042 13.3278C142.266 13.1247 144.662 13.8122 146.464 15.1455C148.584 16.6872 149.881 19.182 150.12 21.7653C150.839 28.8122 145.115 36.0882 137.594 34.557H137.6ZM140.896 35.9372C140.417 35.7705 140.053 35.6716 139.641 35.4841C141.855 35.3695 140.949 35.234 143.058 36.0986C142.35 36.1195 141.443 36.1351 140.896 35.9372ZM145.626 35.7341C143.886 36.3226 143.605 35.8018 142.068 35.208C142.589 35.0882 143.1 34.9216 143.594 34.7184L145.86 35.6611C145.787 35.6872 145.709 35.7132 145.626 35.7341ZM147.459 34.9841C147.141 35.1559 146.813 35.3122 146.475 35.4424L144.141 34.4684C144.464 34.307 144.761 34.1455 145.063 33.958C145.089 33.9424 145.115 33.9268 145.141 33.9111L147.568 34.9268C147.532 34.9476 147.495 34.9632 147.459 34.9841ZM148.959 33.9893C148.662 34.2236 148.36 34.4424 148.037 34.6455L145.579 33.6195C145.907 33.3903 146.219 33.1403 146.516 32.8799L149.032 33.932L148.959 33.9893ZM150.204 32.8174C149.954 33.0934 149.678 33.359 149.407 33.609L146.876 32.5518C147.146 32.2965 147.402 32.0309 147.646 31.7445L150.209 32.8122L150.204 32.8174ZM150.73 32.1976C150.662 32.2861 150.589 32.3747 150.511 32.4632L147.943 31.3903C148.173 31.1143 148.376 30.833 148.584 30.5309L151.027 31.5518C151.027 31.8122 150.902 32.0101 150.73 32.1976ZM155.469 35.708L155.032 35.5309C155.308 35.5361 155.594 35.5466 155.87 35.5413C156.068 35.4163 157.35 36.0466 157.548 36.1091C156.824 36.057 156.032 35.9476 155.469 35.708ZM159.61 35.7601C159.594 35.8695 159.568 35.9788 159.521 36.083C159.042 36.4893 157.193 35.4215 156.714 35.2861C156.99 35.0361 157.032 34.6716 157.094 34.3122L159.673 35.3903C159.652 35.5257 159.631 35.6507 159.61 35.7601ZM159.855 34.0101C159.824 34.3747 159.803 34.6247 159.751 34.9476L157.173 33.8695C157.235 33.5153 157.282 33.1559 157.303 32.7965C157.344 32.8695 160.089 33.8122 159.855 34.0101ZM160.016 32.4007C159.969 32.7236 159.928 33.0934 159.902 33.4007L157.339 32.333C157.37 31.9788 157.402 31.609 157.454 31.2497C157.459 31.2965 160.167 32.2861 160.016 32.4007ZM160.438 30.9163C160.292 31.2236 160.183 31.5465 160.11 31.8851L157.527 30.807C157.563 30.6351 157.6 30.484 157.641 30.3434C157.693 30.1611 157.766 29.984 157.855 29.8122L160.449 30.8955C160.443 30.9007 160.443 30.9111 160.438 30.9163ZM161.423 29.9736C161.126 30.0778 160.881 30.2549 160.693 30.5049C160.693 30.5518 158.136 29.4372 158.126 29.4528C158.516 29.1663 159.074 29.1663 159.532 29.0934C159.87 29.3018 161.209 29.6611 161.423 29.9736ZM160.324 28.9476C160.73 28.8226 160.693 28.8747 160.923 29.1976C160.756 29.1299 160.495 29.0205 160.324 28.9476ZM168.766 35.4424C168.475 35.6663 168.162 35.8643 167.834 36.0413C167.834 36.0361 165.407 35.0309 165.407 35.0309C165.699 34.8382 166.006 34.6143 166.292 34.3955L168.777 35.4372L168.766 35.4424ZM166.735 34.1038C167.074 33.9163 167.574 33.682 167.949 33.484L168.542 33.7288C168.548 34.1611 168.636 34.5726 168.808 34.9684L166.735 34.1038ZM168.563 33.2132C168.558 33.2288 168.558 33.2445 168.558 33.2601L168.449 33.2132C168.49 33.1924 168.527 33.1715 168.563 33.1507C168.563 33.1715 168.563 33.1924 168.563 33.2132ZM170.048 34.6195C169.454 34.5361 169.23 34.182 169.303 33.5882C169.35 32.9059 169.318 32.2653 169.318 31.583C168.777 32.2861 167.829 32.6872 167.032 33.0986C166.094 33.5049 165.475 34.1403 164.61 34.6299C163.23 32.8434 162.766 29.7445 160.954 28.1559C160.657 28.0361 160.308 28.1924 160.006 28.2497C159.74 28.307 159.469 28.3486 159.199 28.3747C155.943 28.458 156.923 32.5101 156.251 34.6403C156.173 34.9007 155.495 34.7497 155.256 34.7809C154.193 34.682 150.985 34.8122 151.568 33.1559C152.376 27.2184 153.1 21.2913 154.428 15.4372C154.766 13.8018 154.548 13.6247 156.423 13.734C157.657 13.7757 158.876 13.5674 160.094 13.4632C161.62 13.2601 161.975 13.0101 162.521 14.6299C163.188 16.0309 163.834 17.4424 164.464 18.8643C166.152 22.9007 168.058 26.9893 169.324 31.1559C169.407 25.2445 169.881 19.359 169.725 13.432C172.766 13.2653 175.98 13.0518 178.548 15.0153C180.766 16.5465 182.141 19.109 182.386 21.7653C183.074 28.7809 177.553 35.8903 170.048 34.6143V34.6195ZM173.162 35.9372C172.683 35.7705 172.318 35.6768 171.907 35.4841C174.115 35.3695 173.225 35.2393 175.324 36.0986C174.615 36.1195 173.709 36.1351 173.162 35.9372ZM177.896 35.7341C176.178 36.3226 175.85 35.7966 174.334 35.208C174.855 35.0882 175.365 34.9216 175.86 34.7184L178.131 35.6611C178.053 35.6872 177.98 35.7132 177.896 35.7341ZM179.73 34.9841C179.407 35.1559 179.079 35.3122 178.745 35.4424L176.407 34.4684C176.735 34.307 177.027 34.1455 177.329 33.958C177.355 33.9476 177.381 33.9268 177.407 33.9111L179.834 34.9268C179.798 34.9476 179.761 34.9632 179.73 34.9841ZM181.225 33.9893C180.933 34.2236 180.626 34.4424 180.308 34.6455L177.844 33.6195C178.173 33.3903 178.485 33.1455 178.782 32.8799L181.298 33.932L181.225 33.9893ZM182.469 32.8174C182.219 33.0934 181.943 33.359 181.673 33.609L179.141 32.557C179.412 32.2965 179.667 32.0309 179.912 31.7445L182.475 32.8122L182.469 32.8174ZM183.355 31.7236C183.167 31.9788 182.98 32.2236 182.777 32.4632L180.209 31.3903C180.438 31.1143 180.646 30.833 180.85 30.5309L183.433 31.609C183.407 31.6455 183.381 31.6872 183.355 31.7236ZM184.12 30.5101C183.985 30.7601 183.834 30.9997 183.683 31.2393L181.094 30.1559C181.287 29.8538 181.464 29.557 181.62 29.2445C181.626 29.3538 184.636 30.2549 184.12 30.5101ZM184.714 29.2965C184.62 29.5101 184.521 29.734 184.417 29.9372L181.818 28.8538C181.902 28.6976 181.975 28.5205 182.048 28.3695C182.11 28.2184 182.183 28.0465 182.24 27.9007L184.839 28.984C184.798 29.0882 184.756 29.1924 184.714 29.2965ZM185.225 27.8695C185.152 28.1038 185.079 28.3382 184.995 28.5726L182.396 27.4893C182.475 27.2861 182.548 27.057 182.61 26.859C182.646 26.7288 182.678 26.6143 182.714 26.4893L185.308 27.5726C185.282 27.6715 185.256 27.7705 185.225 27.8695ZM185.589 26.2757C185.542 26.5726 185.485 26.8538 185.417 27.1403L182.829 26.0622C182.917 25.7184 182.98 25.359 183.037 25.0205C183.084 25.1247 185.907 26.0101 185.589 26.2757ZM185.745 24.5882C185.74 24.932 185.709 25.3018 185.673 25.6455L183.105 24.5726C183.152 24.2132 183.183 23.8434 183.199 23.484L185.657 24.5049C185.714 24.5257 185.761 24.5101 185.745 24.5882Z" fill="white"/>
</g>
<path d="M172.75 27.0205C172.792 27.4112 172.849 27.7601 173.026 28.0935C173.672 29.208 175.078 28.3695 175.807 27.7549C179.313 25.3382 179.667 19.3018 174.802 18.3851C172.932 18.1091 172.828 20.031 172.901 21.406C173.094 23.2862 172.625 25.1612 172.75 27.0205ZM177.005 24.1247C177.026 23.0257 176.745 21.807 177.188 20.7653C178.125 22.1612 177.792 24.0049 176.938 25.3747C176.969 24.958 177.016 24.5466 177.005 24.1247ZM174.292 27.8122C173.969 27.9632 173.667 27.8903 173.609 27.5101L174.313 27.807C174.302 27.807 174.297 27.8122 174.292 27.8122ZM174.12 19.1924C175.042 18.9164 176.016 19.5935 176.688 20.1716C176.688 20.1924 176.63 20.2289 176.62 20.2601L174.089 19.208C174.099 19.2028 174.109 19.1976 174.12 19.1924ZM173.656 20.5674C173.661 20.2237 173.708 19.8903 173.807 19.5674L176.406 20.6455C176.286 20.9893 176.224 21.3382 176.208 21.6976L173.708 20.656C173.651 20.6455 173.651 20.6195 173.656 20.5674ZM176.193 22.1664C176.188 22.4945 176.203 22.9737 176.219 23.307L173.708 22.2601C173.651 21.9216 173.672 21.4737 173.651 21.1039L176.193 22.1664ZM173.656 23.8278C173.682 23.4632 173.719 23.0987 173.708 22.7341L176.24 23.7914C176.255 24.1664 176.25 24.5362 176.214 24.9112C176.156 24.8695 173.667 23.8695 173.656 23.8278ZM173.531 25.2237C173.552 24.9372 173.589 24.5882 173.609 24.3018C173.609 24.3018 176.182 25.3695 176.177 25.3747C176.146 25.6664 176.104 26.1716 176.078 26.458C175.995 26.4632 173.531 25.2966 173.51 25.4841C173.521 25.4007 173.526 25.3122 173.531 25.2237ZM173.484 26.0935C173.484 26.0153 173.49 25.932 173.495 25.8487C173.526 25.8851 175.714 26.7758 175.755 26.8018C175.469 27.0726 175.156 27.3226 174.818 27.5362C174.693 27.5153 173.635 26.9685 173.521 27.083C173.484 26.7549 173.474 26.4268 173.484 26.0935Z" fill="white"/>
<path d="M140.484 27.0205C140.526 27.4112 140.583 27.7601 140.76 28.0935C141.406 29.208 142.813 28.3695 143.542 27.7549C147.052 25.2757 147.432 19.3643 142.536 18.3851C140.667 18.1091 140.563 20.031 140.635 21.406C140.828 23.2862 140.359 25.1612 140.484 27.0205ZM144.74 24.1247C144.76 23.0257 144.479 21.807 144.922 20.7653C145.859 22.1612 145.526 24.0049 144.672 25.3747C144.703 24.958 144.75 24.5466 144.74 24.1247ZM142.021 27.8122C141.693 27.958 141.411 27.8955 141.339 27.5101L142.047 27.807C142.036 27.807 142.031 27.8122 142.021 27.8122ZM141.854 19.1924C142.781 18.9164 143.755 19.5987 144.427 20.1768C144.396 20.2028 144.375 20.2289 144.354 20.2601L141.823 19.208C141.833 19.1976 141.844 19.1924 141.854 19.1924ZM141.391 20.5674C141.391 20.2237 141.443 19.8903 141.536 19.5674L144.135 20.6455C144.021 20.9893 143.958 21.3382 143.943 21.6976L141.443 20.656C141.385 20.6455 141.385 20.6195 141.391 20.5674ZM143.927 22.1664C143.922 22.4945 143.938 22.9737 143.953 23.307L141.443 22.2601C141.38 21.9216 141.406 21.4737 141.385 21.1039L143.927 22.1664ZM141.385 23.8278C141.417 23.4632 141.453 23.0987 141.443 22.7341L143.974 23.7914C143.99 24.1664 143.984 24.5362 143.948 24.9112C143.891 24.8695 141.396 23.8695 141.385 23.8278ZM141.266 25.2237C141.286 24.9372 141.318 24.5882 141.344 24.3018C141.344 24.3018 143.917 25.3695 143.911 25.3747C143.88 25.6664 143.839 26.1716 143.813 26.458C143.729 26.4632 141.266 25.2966 141.245 25.4841C141.25 25.4007 141.26 25.3122 141.266 25.2237ZM141.219 26.0935C141.219 26.0153 141.224 25.932 141.229 25.8487C141.26 25.8851 143.448 26.7758 143.49 26.8018C143.203 27.0726 142.885 27.3226 142.552 27.5362C142.427 27.5153 141.37 26.9685 141.255 27.083C141.219 26.7549 141.208 26.4268 141.219 26.0935Z" fill="white"/>
<path d="M25.0645 12.2705C26.6895 12.2705 28.127 12.5622 29.377 13.1455C30.6374 13.7184 31.653 14.5101 32.4186 15.5205L30.2728 17.083C29.6478 16.2497 28.8665 15.6247 27.9395 15.208C27.0228 14.7809 26.0645 14.5622 25.0645 14.5622C22.8561 14.5622 20.9915 15.4059 19.4811 17.083C17.9655 18.7653 17.1895 20.8018 17.1478 23.1872C17.1478 25.6611 17.8978 27.7184 19.3978 29.3538C20.9082 30.9788 22.7988 31.8018 25.0645 31.8122C27.5488 31.8122 29.554 30.8486 31.0853 28.9163L32.9395 30.4788C31.1165 32.8955 28.4915 34.1038 25.0645 34.1038C22.0332 34.1038 19.528 33.0622 17.5436 30.9788C15.554 28.8851 14.5436 26.2861 14.502 23.1872C14.502 20.1038 15.502 17.5309 17.502 15.458C19.5124 13.3747 22.0332 12.3122 25.0645 12.2705Z" fill="white"/>
<path d="M42.0378 12.792C44.7565 12.792 46.7565 13.2451 48.0378 14.1462C49.3138 15.0524 49.9544 16.5003 49.9544 18.5003C49.9544 19.9587 49.5169 21.167 48.6419 22.1253C47.7773 23.0732 46.4857 23.7035 44.7669 24.0212L50.6628 33.5837H47.6419L42.0169 24.2503H38.8294V33.5837H36.3711V12.792H42.0378ZM41.7669 21.9587C43.7096 21.9587 45.1211 21.6982 45.9961 21.167C46.8815 20.6253 47.3294 19.7451 47.3294 18.5212C47.3294 17.3545 46.9232 16.4951 46.1211 15.9378C45.3294 15.3701 44.1055 15.0837 42.4544 15.0837H38.8294V21.9587H41.7669Z" fill="white"/>
<path d="M67.3652 12.792V15.0837H56.7611V21.6045H66.6569V23.8962H56.7611V31.292H67.8861V33.5837H54.3027V12.792H67.3652Z" fill="white"/>
<path d="M80.7682 12.792L89.6016 33.5837H86.7266L84.6224 28.4795H74.2266L72.0807 33.5837H69.2891L78.4557 12.792H80.7682ZM79.5182 15.9795L75.2057 26.1878H83.6849L79.5807 15.9795H79.5182Z" fill="white"/>
<path d="M106.304 12.792V15.0837H99.4499V33.5837H96.9707V15.0837H90.0957V12.792H106.304Z" fill="white"/>
<path d="M111.671 12.792V33.5837H109.213V12.792H111.671Z" fill="white"/>
<path d="M116.78 12.792L123.176 29.8753H123.238L129.842 12.792H132.467L124.322 33.5837H121.947L113.988 12.792H116.78Z" fill="white"/>
</svg>
