<svg width="200" height="50" viewBox="0 0 200 50" fill="none" xmlns="http://www.w3.org/2000/svg">
<path d="M160.849 24.5049C160.609 23.4268 159.276 19.6715 158.302 19.3955C157.823 19.5465 158.042 20.2028 157.932 20.5882C157.859 22.0518 157.182 23.6403 157.469 25.0622C157.849 25.2601 161.109 25.2601 160.849 24.5049ZM158.641 21.0205C158.865 21.4372 159.083 21.8538 159.281 22.2809C158.286 21.9268 158.516 21.984 158.641 21.0205ZM158.146 24.4007C158.161 24.2393 158.182 24.0778 158.203 23.9111L159.266 24.3538C158.896 24.3695 158.521 24.3851 158.146 24.4007ZM158.26 23.458C158.312 23.1038 158.37 22.7497 158.427 22.4007C159.656 22.8174 159.677 22.9632 159.995 24.182L158.26 23.458Z" fill="black"/>
<mask id="mask0_3_1549" style="mask-type:luminance" maskUnits="userSpaceOnUse" x="136" y="10" width="51" height="26">
<path d="M136.25 10H186.578V35.3333H136.25V10Z" fill="white"/>
</mask>
<g mask="url(#mask0_3_1549)">
<path d="M186.505 24.1507C186.5 21.0153 185.109 17.859 182.552 15.9684C181.26 14.9163 178.64 14.0518 177.125 13.3747C175.229 12.4997 173.026 12.4424 171.01 12.6507C170.479 12.859 169.135 12.2653 168.953 13.0413C169.041 15.6559 168.989 18.3174 168.901 20.9424C167.791 18.6143 166.896 16.0622 165.541 13.8955L162.244 12.5205C162.182 12.4945 162.119 12.4893 162.057 12.4893C152.906 13.984 154.75 10.3799 152.911 18.9893C151.172 15.7393 148.213 14.7288 145.01 13.4372C142.432 12.2184 139.505 12.5465 136.807 12.7549C136.614 17.4632 136.682 22.3434 136.406 27.0934C136.317 29.1195 136.286 31.1715 136.291 33.2132C136.25 33.8643 136.281 34.4893 136.567 34.9945C137.161 35.2601 140.036 36.5101 140.635 36.6455C144.26 37.4893 148.338 36.1195 150.776 33.3122C150.489 34.1715 151.135 34.7184 151.911 35.0466C153.791 35.9059 156.817 37.1663 158.838 36.9163C159.25 36.9163 159.692 36.9476 160.01 36.6663C160.786 35.7601 160.463 32.7705 161.026 31.4632C161.161 31.109 161.38 30.7393 161.776 30.6507C162.458 32.0622 163.109 33.682 163.89 34.9997C164.161 35.5101 167.323 36.6507 167.843 36.8122C168.661 36.6247 169.281 35.9111 169.994 35.5049C178.364 39.9788 186.578 32.8538 186.505 24.1507ZM185.656 22.9007C185.708 23.2861 185.739 23.6768 185.744 24.0674L183.208 23.0101C183.208 22.6247 183.198 22.2393 183.161 21.859L185.656 22.9007ZM185.281 21.1403C185.406 21.5518 185.505 21.9684 185.583 22.3955L183.104 21.3643C183.052 20.9476 182.974 20.5413 182.869 20.1351L185.281 21.1403ZM184.411 19.1715C184.677 19.6247 184.906 20.0934 185.088 20.583C185.083 20.5674 182.703 19.6143 182.718 19.583C182.583 19.1247 182.411 18.682 182.208 18.2497L184.411 19.1715ZM180.406 15.5674C181.864 16.234 183.057 17.2184 183.989 18.5205C183.974 18.4997 181.885 17.6715 181.896 17.6299C181.651 17.1872 181.369 16.7653 181.057 16.3695C180.828 16.0726 180.583 15.7913 180.317 15.5257C180.349 15.5361 180.375 15.5518 180.406 15.5674ZM168.729 25.458C167.63 25.1611 167.776 24.6663 167.359 23.7601C168.562 24.3747 168.911 23.8799 168.729 25.458ZM168.677 27.0413C168.442 26.6403 168.323 26.1195 168.125 25.682C169.041 25.9215 168.619 26.2861 168.672 27.0413H168.677ZM168.833 22.7653C168.823 23.1403 168.807 23.5101 168.791 23.8799C167.265 23.234 167.13 23.484 166.567 21.8226L168.833 22.7653ZM168.021 20.8226C168.224 21.2809 168.422 21.7393 168.619 22.1976L166.323 21.2445C166.13 20.7861 165.932 20.3278 165.734 19.8695L168.021 20.8226ZM167.14 18.8486C167.349 19.3122 167.557 19.7757 167.76 20.2393L165.479 19.2861C165.276 18.8226 165.073 18.3643 164.864 17.9007L167.14 18.8486ZM166.224 16.859C166.442 17.333 166.656 17.7965 166.869 18.2601L164.599 17.3122C164.39 16.8486 164.177 16.3851 163.963 15.9163L166.224 16.859ZM165.114 14.5361C165.396 15.1143 165.672 15.6924 165.942 16.2653C163.869 15.3486 163.776 15.8382 162.869 13.5986L165.114 14.5361ZM152.14 23.5101C150.661 22.8174 151.021 23.458 150.89 21.859C152.135 22.5205 152.489 21.9476 152.14 23.5101ZM151.916 25.0257C150.651 24.4632 150.828 24.8903 150.932 23.484C152.062 23.9893 152.198 23.6715 151.916 25.0257ZM151.823 25.6924C151.781 25.9736 151.744 26.2601 151.703 26.5413C150.349 25.8851 150.51 26.4997 150.771 25.0205C150.901 25.1403 152.067 25.3747 151.823 25.6924ZM151.609 27.2132C151.573 27.4945 151.531 27.7757 151.494 28.057L150.13 27.4893C150.203 27.2861 150.281 27.0622 150.343 26.859C150.38 26.734 150.411 26.6143 150.448 26.4945C150.567 26.609 151.869 26.8903 151.609 27.208V27.2132ZM148.828 30.1559C149.021 29.859 149.192 29.557 149.354 29.2445L151.229 30.0309C151.182 30.3851 151.135 30.7393 151.083 31.0986L148.828 30.1559ZM151.406 28.7288C151.364 29.0153 151.328 29.2965 151.291 29.5778L149.552 28.8538C149.583 28.7913 149.609 28.7393 149.64 28.6768C149.755 28.4215 149.875 28.1559 149.974 27.9007C150.078 28.0205 151.692 28.4111 151.406 28.7288ZM150.838 21.3643C150.786 20.9476 150.708 20.5413 150.604 20.1351L152.557 20.9476C152.494 21.3018 152.437 21.6507 152.38 22.0049L150.838 21.3643ZM152.146 19.1715C152.333 19.5934 152.76 20.0309 152.635 20.5049L150.453 19.5986C150.317 19.1351 150.151 18.6872 149.942 18.2497L152.146 19.1715ZM148.14 15.5674C149.599 16.234 150.791 17.2184 151.724 18.5205C151.708 18.4997 149.614 17.6715 149.625 17.6299C149.38 17.1872 149.104 16.7653 148.791 16.3695C148.562 16.0726 148.312 15.7913 148.052 15.5257C148.078 15.5361 148.109 15.5518 148.135 15.5674H148.14ZM137.599 34.557C136.76 34.4528 137.104 33.432 137.062 32.8174C137.01 29.8434 137.187 26.859 137.281 23.9059C137.416 20.4684 137.557 16.9215 137.458 13.432C138.385 13.458 139.156 13.3747 140.041 13.3278C142.265 13.1247 144.661 13.8122 146.463 15.1455C148.583 16.6872 149.88 19.182 150.119 21.7653C150.838 28.8122 145.114 36.0882 137.593 34.557H137.599ZM140.896 35.9372C140.416 35.7705 140.052 35.6716 139.64 35.4841C141.854 35.3695 140.948 35.234 143.057 36.0986C142.349 36.1195 141.442 36.1351 140.896 35.9372ZM145.625 35.7341C143.885 36.3226 143.604 35.8018 142.067 35.208C142.588 35.0882 143.099 34.9216 143.593 34.7184L145.859 35.6611C145.786 35.6872 145.708 35.7132 145.625 35.7341ZM147.458 34.9841C147.14 35.1559 146.812 35.3122 146.474 35.4424L144.14 34.4684C144.463 34.307 144.76 34.1455 145.062 33.958C145.088 33.9424 145.114 33.9268 145.14 33.9111L147.567 34.9268C147.531 34.9476 147.494 34.9632 147.458 34.9841ZM148.958 33.9893C148.661 34.2236 148.359 34.4424 148.036 34.6455L145.578 33.6195C145.906 33.3903 146.218 33.1403 146.515 32.8799L149.031 33.932L148.958 33.9893ZM150.203 32.8174C149.953 33.0934 149.677 33.359 149.406 33.609L146.875 32.5518C147.146 32.2965 147.401 32.0309 147.646 31.7445L150.208 32.8122L150.203 32.8174ZM150.729 32.1976C150.661 32.2861 150.588 32.3747 150.51 32.4632L147.942 31.3903C148.172 31.1143 148.375 30.833 148.583 30.5309L151.026 31.5518C151.026 31.8122 150.901 32.0101 150.729 32.1976ZM155.468 35.708L155.031 35.5309C155.307 35.5361 155.593 35.5466 155.869 35.5413C156.067 35.4163 157.349 36.0466 157.547 36.1091C156.823 36.057 156.031 35.9476 155.468 35.708ZM159.609 35.7601C159.593 35.8695 159.567 35.9788 159.521 36.083C159.041 36.4893 157.192 35.4215 156.713 35.2861C156.989 35.0361 157.031 34.6716 157.093 34.3122L159.672 35.3903C159.651 35.5257 159.63 35.6507 159.609 35.7601ZM159.854 34.0101C159.823 34.3747 159.802 34.6247 159.75 34.9476L157.172 33.8695C157.234 33.5153 157.281 33.1559 157.302 32.7965C157.343 32.8695 160.088 33.8122 159.854 34.0101ZM160.015 32.4007C159.968 32.7236 159.927 33.0934 159.901 33.4007L157.338 32.333C157.369 31.9788 157.401 31.609 157.453 31.2497C157.458 31.2965 160.166 32.2861 160.015 32.4007ZM160.437 30.9163C160.291 31.2236 160.182 31.5465 160.109 31.8851L157.526 30.807C157.562 30.6351 157.599 30.484 157.64 30.3434C157.692 30.1611 157.765 29.984 157.854 29.8122L160.448 30.8955C160.442 30.9007 160.442 30.9111 160.437 30.9163ZM161.422 29.9736C161.125 30.0778 160.88 30.2549 160.692 30.5049C160.692 30.5518 158.135 29.4372 158.125 29.4528C158.515 29.1663 159.073 29.1663 159.531 29.0934C159.869 29.3018 161.208 29.6611 161.422 29.9736ZM160.323 28.9476C160.729 28.8226 160.692 28.8747 160.922 29.1976C160.755 29.1299 160.494 29.0205 160.323 28.9476ZM168.765 35.4424C168.474 35.6663 168.161 35.8643 167.833 36.0413C167.833 36.0361 165.406 35.0309 165.406 35.0309C165.698 34.8382 166.005 34.6143 166.291 34.3955L168.776 35.4372L168.765 35.4424ZM166.734 34.1038C167.073 33.9163 167.573 33.682 167.948 33.484L168.541 33.7288C168.547 34.1611 168.635 34.5726 168.807 34.9684L166.734 34.1038ZM168.562 33.2132C168.557 33.2288 168.557 33.2445 168.557 33.2601L168.448 33.2132C168.489 33.1924 168.526 33.1715 168.562 33.1507C168.562 33.1715 168.562 33.1924 168.562 33.2132ZM170.047 34.6195C169.453 34.5361 169.229 34.182 169.302 33.5882C169.349 32.9059 169.317 32.2653 169.317 31.583C168.776 32.2861 167.828 32.6872 167.031 33.0986C166.093 33.5049 165.474 34.1403 164.609 34.6299C163.229 32.8434 162.765 29.7445 160.953 28.1559C160.656 28.0361 160.307 28.1924 160.005 28.2497C159.739 28.307 159.468 28.3486 159.198 28.3747C155.942 28.458 156.922 32.5101 156.25 34.6403C156.172 34.9007 155.494 34.7497 155.255 34.7809C154.192 34.682 150.984 34.8122 151.567 33.1559C152.375 27.2184 153.099 21.2913 154.427 15.4372C154.765 13.8018 154.547 13.6247 156.422 13.734C157.656 13.7757 158.875 13.5674 160.093 13.4632C161.619 13.2601 161.974 13.0101 162.521 14.6299C163.187 16.0309 163.833 17.4424 164.463 18.8643C166.151 22.9007 168.057 26.9893 169.323 31.1559C169.406 25.2445 169.88 19.359 169.724 13.432C172.765 13.2653 175.979 13.0518 178.547 15.0153C180.765 16.5465 182.14 19.109 182.385 21.7653C183.073 28.7809 177.552 35.8903 170.047 34.6143V34.6195ZM173.161 35.9372C172.682 35.7705 172.317 35.6768 171.906 35.4841C174.114 35.3695 173.224 35.2393 175.323 36.0986C174.614 36.1195 173.708 36.1351 173.161 35.9372ZM177.896 35.7341C176.177 36.3226 175.849 35.7966 174.333 35.208C174.854 35.0882 175.364 34.9216 175.859 34.7184L178.13 35.6611C178.052 35.6872 177.979 35.7132 177.896 35.7341ZM179.729 34.9841C179.406 35.1559 179.078 35.3122 178.744 35.4424L176.406 34.4684C176.734 34.307 177.026 34.1455 177.328 33.958C177.354 33.9476 177.38 33.9268 177.406 33.9111L179.833 34.9268C179.797 34.9476 179.76 34.9632 179.729 34.9841ZM181.224 33.9893C180.932 34.2236 180.625 34.4424 180.307 34.6455L177.843 33.6195C178.172 33.3903 178.484 33.1455 178.781 32.8799L181.297 33.932L181.224 33.9893ZM182.468 32.8174C182.218 33.0934 181.942 33.359 181.672 33.609L179.14 32.557C179.411 32.2965 179.666 32.0309 179.911 31.7445L182.474 32.8122L182.468 32.8174ZM183.354 31.7236C183.166 31.9788 182.979 32.2236 182.776 32.4632L180.208 31.3903C180.437 31.1143 180.646 30.833 180.849 30.5309L183.432 31.609C183.406 31.6455 183.38 31.6872 183.354 31.7236ZM184.119 30.5101C183.984 30.7601 183.833 30.9997 183.682 31.2393L181.093 30.1559C181.286 29.8538 181.463 29.557 181.619 29.2445C181.625 29.3538 184.635 30.2549 184.119 30.5101ZM184.713 29.2965C184.619 29.5101 184.521 29.734 184.416 29.9372L181.817 28.8538C181.901 28.6976 181.974 28.5205 182.047 28.3695C182.109 28.2184 182.182 28.0465 182.239 27.9007L184.838 28.984C184.797 29.0882 184.755 29.1924 184.713 29.2965ZM185.224 27.8695C185.151 28.1038 185.078 28.3382 184.994 28.5726L182.396 27.4893C182.474 27.2861 182.547 27.057 182.609 26.859C182.646 26.7288 182.677 26.6143 182.713 26.4893L185.307 27.5726C185.281 27.6715 185.255 27.7705 185.224 27.8695ZM185.588 26.2757C185.541 26.5726 185.484 26.8538 185.416 27.1403L182.828 26.0622C182.916 25.7184 182.979 25.359 183.036 25.0205C183.083 25.1247 185.906 26.0101 185.588 26.2757ZM185.744 24.5882C185.739 24.932 185.708 25.3018 185.672 25.6455L183.104 24.5726C183.151 24.2132 183.182 23.8434 183.198 23.484L185.656 24.5049C185.713 24.5257 185.76 24.5101 185.744 24.5882Z" fill="black"/>
</g>
<path d="M172.75 27.0205C172.792 27.4112 172.849 27.7601 173.026 28.0935C173.672 29.208 175.078 28.3695 175.807 27.7549C179.313 25.3382 179.667 19.3018 174.802 18.3851C172.932 18.1091 172.828 20.031 172.901 21.406C173.094 23.2862 172.625 25.1612 172.75 27.0205ZM177.005 24.1247C177.026 23.0257 176.745 21.807 177.188 20.7653C178.125 22.1612 177.792 24.0049 176.938 25.3747C176.969 24.958 177.016 24.5466 177.005 24.1247ZM174.292 27.8122C173.969 27.9632 173.667 27.8903 173.609 27.5101L174.313 27.807C174.302 27.807 174.297 27.8122 174.292 27.8122ZM174.12 19.1924C175.042 18.9164 176.016 19.5935 176.688 20.1716C176.688 20.1924 176.63 20.2289 176.62 20.2601L174.089 19.208C174.099 19.2028 174.109 19.1976 174.12 19.1924ZM173.656 20.5674C173.661 20.2237 173.708 19.8903 173.807 19.5674L176.406 20.6455C176.286 20.9893 176.224 21.3382 176.208 21.6976L173.708 20.656C173.651 20.6455 173.651 20.6195 173.656 20.5674ZM176.193 22.1664C176.188 22.4945 176.203 22.9737 176.219 23.307L173.708 22.2601C173.651 21.9216 173.672 21.4737 173.651 21.1039L176.193 22.1664ZM173.656 23.8278C173.682 23.4632 173.719 23.0987 173.708 22.7341L176.24 23.7914C176.255 24.1664 176.25 24.5362 176.214 24.9112C176.156 24.8695 173.667 23.8695 173.656 23.8278ZM173.531 25.2237C173.552 24.9372 173.589 24.5882 173.609 24.3018C173.609 24.3018 176.182 25.3695 176.177 25.3747C176.146 25.6664 176.104 26.1716 176.078 26.458C175.995 26.4632 173.531 25.2966 173.51 25.4841C173.521 25.4007 173.526 25.3122 173.531 25.2237ZM173.484 26.0935C173.484 26.0153 173.49 25.932 173.495 25.8487C173.526 25.8851 175.714 26.7758 175.755 26.8018C175.469 27.0726 175.156 27.3226 174.818 27.5362C174.693 27.5153 173.635 26.9685 173.521 27.083C173.484 26.7549 173.474 26.4268 173.484 26.0935Z" fill="black"/>
<path d="M140.484 27.0205C140.526 27.4112 140.583 27.7601 140.76 28.0935C141.406 29.208 142.813 28.3695 143.542 27.7549C147.052 25.2757 147.432 19.3643 142.536 18.3851C140.667 18.1091 140.563 20.031 140.635 21.406C140.828 23.2862 140.359 25.1612 140.484 27.0205ZM144.74 24.1247C144.76 23.0257 144.479 21.807 144.922 20.7653C145.859 22.1612 145.526 24.0049 144.672 25.3747C144.703 24.958 144.75 24.5466 144.74 24.1247ZM142.021 27.8122C141.693 27.958 141.411 27.8955 141.339 27.5101L142.047 27.807C142.036 27.807 142.031 27.8122 142.021 27.8122ZM141.854 19.1924C142.781 18.9164 143.755 19.5987 144.427 20.1768C144.396 20.2028 144.375 20.2289 144.354 20.2601L141.823 19.208C141.833 19.1976 141.844 19.1924 141.854 19.1924ZM141.391 20.5674C141.391 20.2237 141.443 19.8903 141.536 19.5674L144.135 20.6455C144.021 20.9893 143.958 21.3382 143.943 21.6976L141.443 20.656C141.385 20.6455 141.385 20.6195 141.391 20.5674ZM143.927 22.1664C143.922 22.4945 143.938 22.9737 143.953 23.307L141.443 22.2601C141.38 21.9216 141.406 21.4737 141.385 21.1039L143.927 22.1664ZM141.385 23.8278C141.417 23.4632 141.453 23.0987 141.443 22.7341L143.974 23.7914C143.99 24.1664 143.984 24.5362 143.948 24.9112C143.891 24.8695 141.396 23.8695 141.385 23.8278ZM141.266 25.2237C141.286 24.9372 141.318 24.5882 141.344 24.3018C141.344 24.3018 143.917 25.3695 143.911 25.3747C143.88 25.6664 143.839 26.1716 143.813 26.458C143.729 26.4632 141.266 25.2966 141.245 25.4841C141.25 25.4007 141.26 25.3122 141.266 25.2237ZM141.219 26.0935C141.219 26.0153 141.224 25.932 141.229 25.8487C141.26 25.8851 143.448 26.7758 143.49 26.8018C143.203 27.0726 142.885 27.3226 142.552 27.5362C142.427 27.5153 141.37 26.9685 141.255 27.083C141.219 26.7549 141.208 26.4268 141.219 26.0935Z" fill="black"/>
<path d="M25.0645 12.2705C26.6895 12.2705 28.127 12.5622 29.377 13.1455C30.6374 13.7184 31.653 14.5101 32.4186 15.5205L30.2728 17.083C29.6478 16.2497 28.8665 15.6247 27.9395 15.208C27.0228 14.7809 26.0645 14.5622 25.0645 14.5622C22.8561 14.5622 20.9915 15.4059 19.4811 17.083C17.9655 18.7653 17.1895 20.8018 17.1478 23.1872C17.1478 25.6611 17.8978 27.7184 19.3978 29.3538C20.9082 30.9788 22.7988 31.8018 25.0645 31.8122C27.5488 31.8122 29.554 30.8486 31.0853 28.9163L32.9395 30.4788C31.1165 32.8955 28.4915 34.1038 25.0645 34.1038C22.0332 34.1038 19.528 33.0622 17.5436 30.9788C15.554 28.8851 14.5436 26.2861 14.502 23.1872C14.502 20.1038 15.502 17.5309 17.502 15.458C19.5124 13.3747 22.0332 12.3122 25.0645 12.2705Z" fill="black"/>
<path d="M42.0378 12.792C44.7565 12.792 46.7565 13.2451 48.0378 14.1462C49.3138 15.0524 49.9544 16.5003 49.9544 18.5003C49.9544 19.9587 49.5169 21.167 48.6419 22.1253C47.7773 23.0732 46.4857 23.7035 44.7669 24.0212L50.6628 33.5837H47.6419L42.0169 24.2503H38.8294V33.5837H36.3711V12.792H42.0378ZM41.7669 21.9587C43.7096 21.9587 45.1211 21.6982 45.9961 21.167C46.8815 20.6253 47.3294 19.7451 47.3294 18.5212C47.3294 17.3545 46.9232 16.4951 46.1211 15.9378C45.3294 15.3701 44.1055 15.0837 42.4544 15.0837H38.8294V21.9587H41.7669Z" fill="black"/>
<path d="M67.3652 12.792V15.0837H56.7611V21.6045H66.6569V23.8962H56.7611V31.292H67.8861V33.5837H54.3027V12.792H67.3652Z" fill="black"/>
<path d="M80.7682 12.792L89.6016 33.5837H86.7266L84.6224 28.4795H74.2266L72.0807 33.5837H69.2891L78.4557 12.792H80.7682ZM79.5182 15.9795L75.2057 26.1878H83.6849L79.5807 15.9795H79.5182Z" fill="black"/>
<path d="M106.305 12.792V15.0837H99.4508V33.5837H96.9717V15.0837H90.0967V12.792H106.305Z" fill="black"/>
<path d="M111.671 12.792V33.5837H109.213V12.792H111.671Z" fill="black"/>
<path d="M116.781 12.792L123.177 29.8753H123.239L129.843 12.792H132.468L124.323 33.5837H121.948L113.989 12.792H116.781Z" fill="black"/>
</svg>
